<?xml version="1.0" encoding="utf-8"?>
<!-- Generator: Adobe Illustrator 27.2.0, SVG Export Plug-In . SVG Version: 6.00 Build 0)  -->
<svg version="1.1" id="Layer_1" xmlns="http://www.w3.org/2000/svg" xmlns:xlink="http://www.w3.org/1999/xlink" x="0px" y="0px"
	 viewBox="0 0 300 300" style="enable-background:new 0 0 300 300;" xml:space="preserve">
<style type="text/css">
	.st0{fill-rule:evenodd;clip-rule:evenodd;fill:#778EB1;}
</style>
<g id="Jamf-Nation-color-white">
	<path id="mark-lower" class="st0" d="M231.5,53c-36.9,0-58.7,15.5-68.6,48.9l-25.8,79.4c-9.5,26.1-24.6,36.8-52.3,36.8H21.6
		C13.4,218,7,224.6,7,232.6v40.5c0,7.8,6.3,14,14,14h257.6c8.1,0,14.6-6.6,14.6-14.6V67c0-7.8-6.3-14-14-14H231.5z"/>
	<path id="mark-upper" class="st0" d="M22.5,12.8c-8.7,0-15.7,7-15.7,15.7v108.4c0,8.5,6.8,15.3,15.3,15.3h54.6
		c25,0,59.3-5.1,68.8-49.4c0,0,9.3-44.5,15-70.9c2.1-9.9-5.5-18.9-15.3-18.9H22.5V12.8z"/>
</g>
</svg>
